<svg width="166" height="166" viewBox="0 0 166 166" fill="none" xmlns="http://www.w3.org/2000/svg">
<path d="M70.6949 0H7.64502V154.407H118.03V40.9187L94.3628 20.4595L70.6949 0Z" fill="#C7CFE2"/>
<path opacity="0.1" d="M70.6949 0H59.9078V51.7058H118.031V40.9187L94.3629 20.4595L70.6949 0Z" fill="black"/>
<path d="M95.4484 0H70.6949V40.9187H118.031V22.5825L95.4484 0Z" fill="#DCE5FA"/>
<path d="M125.867 125.065C135.383 137.24 147.925 140.132 154.873 149.782C161.821 159.431 156.224 163.87 156.224 163.87C156.224 163.87 151.786 169.466 142.136 162.518C132.487 155.57 129.594 143.029 117.42 133.512L125.867 125.065Z" fill="#515262"/>
<path d="M125.258 118.522C122.2 115.464 116.5 116.205 112.528 120.177C108.556 124.15 107.815 129.849 110.873 132.908C113.931 135.966 119.631 135.225 123.603 131.253C127.576 127.28 128.317 121.581 125.258 118.522Z" fill="#B4BBCC"/>
<path d="M94.973 136.101C113.465 136.101 128.456 121.11 128.456 102.618C128.456 84.1256 113.465 69.1348 94.973 69.1348C76.4809 69.1348 61.49 84.1256 61.49 102.618C61.49 121.11 76.4809 136.101 94.973 136.101Z" fill="#7DD2F0"/>
<path d="M94.9731 126.294C108.049 126.294 118.649 115.694 118.649 102.618C118.649 89.542 108.049 78.9419 94.9731 78.9419C81.8971 78.9419 71.297 89.542 71.297 102.618C71.297 115.694 81.8971 126.294 94.9731 126.294Z" fill="white"/>
<path opacity="0.1" d="M85.4232 93.0684C93.4343 85.0573 105.756 83.9926 114.919 89.8639C114.014 88.4516 112.949 87.1116 111.714 85.8769C102.468 76.6309 87.4774 76.6309 78.2317 85.8769C68.9856 95.123 68.9856 110.114 78.2317 119.36C79.4663 120.595 80.8063 121.659 82.2186 122.565C76.3473 113.401 77.412 101.08 85.4232 93.0684Z" fill="black"/>
</svg>
