<svg width="153" height="148" viewBox="0 0 153 148" fill="none" xmlns="http://www.w3.org/2000/svg">
<path d="M29.5936 115.584L53.0712 105.516C54.3438 104.879 55.3795 102.823 56.1086 101.357C56.7655 100.033 55.784 98.4746 54.3052 98.4746H37.7011C37.7011 98.4746 31.6984 97.8872 27.0688 95.8983C24.356 94.7338 23.4234 93.1958 25.1186 90.7818C30.0779 83.7228 40.3289 67.1007 40.6613 49.935C40.6613 49.935 41.2306 23.5102 67.2999 23.2964C82.5076 23.4226 89.6903 32.3726 93.0368 39.8103C94.9021 43.9607 95.7033 48.4846 96.0021 53.024C97.0842 69.3859 105.416 84.3514 109.298 90.7457C110.615 92.915 109.978 95.803 107.801 97.1066C104.231 99.2423 99.8588 98.4746 99.8588 98.4746H83.144C81.5106 98.4746 80.7893 100.757 82.0722 101.77C83.1182 102.594 84.1152 103.339 84.6537 103.632L104.182 115.45C107 116.988 109.249 119.27 110.78 121.965C99.0602 131.438 84.1513 137.119 67.9079 137.119C50.9715 137.119 35.4855 130.938 23.5548 120.726C25.1135 118.6 27.1461 116.807 29.5936 115.584Z" fill="#ECF0F1"/>
<path d="M68.2712 0.576172C30.5649 0.576172 0 31.1436 0 68.8474C0 89.5142 9.19729 108.022 23.7069 120.543C25.2475 118.5 27.2209 116.771 29.5962 115.583L53.0738 105.515C54.3464 104.879 55.3821 102.823 56.1112 101.357C56.7681 100.033 55.7866 98.4745 54.3078 98.4745H37.7037C37.7037 98.4745 31.701 97.8871 27.0715 95.8982C24.3586 94.7337 23.426 93.1957 25.1212 90.7817C30.0805 83.7227 40.3315 67.1006 40.6639 49.935C40.6639 49.935 41.2332 23.5101 67.3025 23.2963C82.5102 23.4225 89.6929 32.3725 93.0395 39.8102C94.9047 43.9606 95.7059 48.4845 96.0048 53.0239C97.0868 69.3858 105.418 84.3514 109.301 90.7457C110.617 92.9149 109.981 95.8029 107.804 97.1065C104.231 99.2422 99.8589 98.4745 99.8589 98.4745H83.144C81.5107 98.4745 80.7893 100.757 82.0723 101.77C83.1182 102.594 84.1153 103.338 84.6537 103.632L104.182 115.45C106.98 116.975 109.211 119.234 110.738 121.903C110.805 121.968 110.88 122.027 110.945 122.096C126.539 109.586 136.542 90.3953 136.542 68.8474C136.542 31.1436 105.978 0.576172 68.2712 0.576172Z" fill="#556080"/>
<path d="M121.085 104.142C123.581 98.5181 129.094 93.3218 135.728 93.3218C144.66 93.3218 151.093 100.589 151.902 109.251C151.902 109.251 152.34 111.402 151.379 115.272C150.07 120.543 146.997 125.226 142.849 128.8L121.085 147.423L99.323 128.8C95.1752 125.226 92.1017 120.543 90.793 115.272C89.832 111.402 90.27 109.251 90.27 109.251C91.0764 100.589 97.5093 93.3218 106.441 93.3218C113.075 93.3218 118.588 98.5181 121.085 104.142Z" fill="#ED7161"/>
</svg>
