<svg width="190" height="190" viewBox="0 0 190 190" fill="none" xmlns="http://www.w3.org/2000/svg">
<path d="M133.405 0C131.73 0 130.373 1.35746 130.373 3.03184V13.1382H136.437V3.03184C136.437 1.35746 135.08 0 133.405 0Z" fill="#5CA8D3"/>
<path d="M56.5966 33.3511L36.3839 53.5638L56.5966 45.4788C63.2667 45.4788 68.7244 40.0215 68.7244 33.3511H56.5966Z" fill="#FDA162"/>
<path d="M16.1711 33.3511H56.5966C56.5966 40.0211 51.1393 45.4788 44.4689 45.4788L36.3839 53.5638L28.2989 45.4788C21.6284 45.4788 16.1711 40.0215 16.1711 33.3511Z" fill="#FDCE6E"/>
<path d="M56.5966 45.4785L36.3839 65.6912L56.5966 57.6062C63.2667 57.6062 68.7244 52.1489 68.7244 45.4785H56.5966Z" fill="#FDA162"/>
<path d="M16.1711 45.4785H56.5966C56.5966 52.1486 51.1393 57.6062 44.4689 57.6062L36.3839 65.6912L28.2989 57.6062C21.6284 57.6062 16.1711 52.1489 16.1711 45.4785Z" fill="#FDCE6E"/>
<path d="M56.5966 57.6064L36.3839 77.8192L56.5966 69.7342C63.2667 69.7342 68.7244 64.2769 68.7244 57.6064H56.5966Z" fill="#FDA162"/>
<path d="M16.1711 57.6064H56.5966C56.5966 64.2765 51.1393 69.7342 44.4689 69.7342L36.3839 77.8192L28.2989 69.7342C21.6284 69.7342 16.1711 64.2769 16.1711 57.6064Z" fill="#FDCE6E"/>
<path d="M56.5966 69.7339L36.3839 89.9466L56.5966 81.8616C63.2667 81.8616 68.7244 76.4043 68.7244 69.7339H56.5966Z" fill="#FDA162"/>
<path d="M16.1711 69.7339H56.5966C56.5966 76.4039 51.1393 81.8616 44.4689 81.8616L36.3839 89.9466L28.2989 81.8616C21.6284 81.8616 16.1711 76.4039 16.1711 69.7339Z" fill="#FDCE6E"/>
<path d="M133.405 9.0957V53.5639L169.788 45.4788C169.788 25.383 153.501 9.0957 133.405 9.0957Z" fill="#66C6FE"/>
<path d="M157.66 45.4788L127.341 53.5639L97.0221 45.4788C97.0221 25.3834 113.309 9.0957 133.405 9.0957C146.802 9.09607 157.66 25.3834 157.66 45.4788Z" fill="#99D9FF"/>
<path d="M161.702 45.4785H92.9786V57.6062H161.702V45.4785Z" fill="#5CA8D3"/>
<path d="M173.83 45.4785H161.702V57.6062H173.83V45.4785Z" fill="#5389A9"/>
<path d="M69.7348 72.7658H15.1603C13.4855 72.7658 12.1284 71.4084 12.1284 69.734C12.1284 68.0596 13.4855 66.7021 15.1603 66.7021H69.7348C71.4095 66.7021 72.7666 68.0596 72.7666 69.734C72.7666 71.4084 71.4095 72.7658 69.7348 72.7658Z" fill="#FDFA7B"/>
<path d="M69.7348 60.6379H15.1603C13.4855 60.6379 12.1284 59.2804 12.1284 57.6061C12.1284 55.9317 13.4855 54.5742 15.1603 54.5742H69.7348C71.4095 54.5742 72.7666 55.9317 72.7666 57.6061C72.7666 59.2804 71.4095 60.6379 69.7348 60.6379Z" fill="#FDFA7B"/>
<path d="M69.7348 48.5105H15.1603C13.4855 48.5105 12.1284 47.153 12.1284 45.4786C12.1284 43.8042 13.4855 42.4468 15.1603 42.4468H69.7348C71.4095 42.4468 72.7666 43.8042 72.7666 45.4786C72.7666 47.153 71.4095 48.5105 69.7348 48.5105Z" fill="#FDFA7B"/>
<path d="M69.7348 36.383H15.1603C13.4855 36.383 12.1284 35.0255 12.1284 33.3512C12.1284 31.6768 13.4855 30.3193 15.1603 30.3193H69.7348C71.4095 30.3193 72.7666 31.6768 72.7666 33.3512C72.7666 35.0255 71.4095 36.383 69.7348 36.383Z" fill="#FDFA7B"/>
<path d="M96.0104 45.4785H89.9468V89.9467H96.0104V45.4785Z" fill="#5389A9"/>
<path d="M176.862 45.4785H170.798V89.9467H176.862V45.4785Z" fill="#496A7E"/>
<path d="M167.766 160.015V186.968C167.766 188.642 169.123 190 170.798 190C172.472 190 173.83 188.642 173.83 186.968V160.015H167.766Z" fill="#B1786B"/>
<path d="M16.1719 160.015V186.968C16.1719 188.642 17.529 190 19.2037 190C20.8785 190 22.2355 188.642 22.2355 186.968V160.015H16.1719Z" fill="#CB9385"/>
<path d="M95.0008 89.9473L7.07605 106.118V118.117L156.649 147.554L170.678 172.083C173.685 173.595 177.177 174.841 182.925 174.841V106.117L95.0008 89.9473Z" fill="#FDA162"/>
<path d="M183.98 81.8618V106.117H171.854L163.285 95.0015L171.854 81.8618H183.98Z" fill="#99D9FF"/>
<path d="M171.854 81.8618H6.02026V106.117H171.854V81.8618Z" fill="#CCECFF"/>
<path d="M170.678 118.245H7.07227V174.841C21.7268 174.841 21.7268 166.755 36.3816 166.755C51.0365 166.755 51.0361 174.841 65.691 174.841C80.3458 174.841 80.3455 166.755 95.0003 166.755C109.655 166.755 109.655 174.841 124.31 174.841C138.964 174.841 138.964 166.755 153.618 166.755C162.523 166.755 166.018 169.74 170.677 172.083V118.245H170.678Z" fill="#FDCE6E"/>
<path d="M161.581 141.489C163.255 141.489 164.613 140.132 164.613 138.457C164.613 136.783 163.255 135.425 161.581 135.425C159.906 135.425 158.549 136.783 158.549 138.457C158.549 140.132 159.906 141.489 161.581 141.489Z" fill="#FDA162"/>
<path d="M149.453 153.617C151.128 153.617 152.485 152.259 152.485 150.585C152.485 148.911 151.128 147.553 149.453 147.553C147.779 147.553 146.421 148.911 146.421 150.585C146.421 152.259 147.779 153.617 149.453 153.617Z" fill="#FDA162"/>
<path d="M177.873 48.5105H88.9367C87.262 48.5105 85.9049 47.153 85.9049 45.4786C85.9049 43.8042 87.262 42.4468 88.9367 42.4468H177.873C179.548 42.4468 180.905 43.8042 180.905 45.4786C180.905 47.153 179.548 48.5105 177.873 48.5105Z" fill="#5389A9"/>
</svg>
